#Comment line ignore any data following # character 
#Hierarchical Translation and Rotation (.htr) file 
[Header]	
#Header keywords are followed by a single value 
FileType HTR		#Single word string
DataType HTRS		#Translation followed by rotation and scale data
FileVersion 1		#integer
NumSegments 84		#integer
NumFrames 2		#integer
DataFrameRate 30		#integer, data frame rate in this file
EulerRotationOrder ZYX
CalibrationUnits mm
RotationUnits Degrees
GlobalAxisofGravity Y
BoneLengthAxis Y
ScaleFactor 1.00
[SegmentNames&Hierarchy]
#CHILD	PARENT
MASTER GLOBAL
root MASTER
chest root
L_mid_tent01 root
R_mid_tent01 root
spine01 root
Bip01_Neck chest
L_humerus chest
R_humerus chest
weapon_bone chest
Bip01_Head Bip01_Neck
eye_left_bone Bip01_Head
eye_right_bone Bip01_Head
L_forearm L_humerus
L_front_hand L_forearm
L_weapon_bone L_forearm
L_front_hand01_01 L_front_hand
L_front_hand02_01 L_front_hand
L_front_hand03_01 L_front_hand
L_front_hand01_02 L_front_hand01_01
L_front_hand02_02 L_front_hand02_01
L_front_hand03_02 L_front_hand03_01
R_forearm R_humerus
R_front_hand R_forearm
R_weapon_bone R_forearm
R_front_hand01_01 R_front_hand
R_front_hand02_01 R_front_hand
R_front_hand03_01 R_front_hand
R_front_hand01_02 R_front_hand01_01
R_front_hand02_02 R_front_hand02_01
R_front_hand03_02 R_front_hand03_01
null_rope01_connect L_mid_tent01
Rope1_Seg01 null_rope01_connect
Rope1_Seg02 Rope1_Seg01
Rope1_Seg03 Rope1_Seg02
Rope1_Seg04 Rope1_Seg03
Rope1_Seg05 Rope1_Seg04
Rope1_Seg06 Rope1_Seg05
Rope1_Seg07 Rope1_Seg06
Rope1_Seg09 Rope1_Seg07
L_mid_hand01 Rope1_Seg09
L_mid_hand02 Rope1_Seg09
L_mid_hand03 Rope1_Seg09
null_rope02_connect R_mid_tent01
Rope2_Seg01 null_rope02_connect
Rope2_Seg02 Rope2_Seg01
Rope2_Seg03 Rope2_Seg02
Rope2_Seg04 Rope2_Seg03
Rope2_Seg05 Rope2_Seg04
Rope2_Seg06 Rope2_Seg05
Rope2_Seg07 Rope2_Seg06
Rope2_Seg09 Rope2_Seg07
R_mid_hand01 Rope2_Seg09
R_mid_hand02 Rope2_Seg09
R_mid_hand03 Rope2_Seg09
spine02 spine01
spine03 spine02
pelvis spine03
null_rope03_connect pelvis
null_rope04_connect pelvis
Rope3_Seg01 null_rope03_connect
Rope3_Seg02 Rope3_Seg01
Rope3_Seg03 Rope3_Seg02
Rope3_Seg04 Rope3_Seg03
Rope3_Seg05 Rope3_Seg04
Rope3_Seg06 Rope3_Seg05
Rope3_Seg07 Rope3_Seg06
Rope3_Seg08 Rope3_Seg07
Rope3_Seg09 Rope3_Seg08
R_rear_hand01 Rope3_Seg09
R_rear_hand02 Rope3_Seg09
R_rear_hand03 Rope3_Seg09
Rope4_Seg01 null_rope04_connect
Rope4_Seg02 Rope4_Seg01
Rope4_Seg03 Rope4_Seg02
Rope4_Seg04 Rope4_Seg03
Rope4_Seg05 Rope4_Seg04
Rope4_Seg06 Rope4_Seg05
Rope4_Seg07 Rope4_Seg06
Rope4_Seg08 Rope4_Seg07
Rope4_Seg09 Rope4_Seg08
L_rear_hand01 Rope4_Seg09
L_rear_hand02 Rope4_Seg09
L_rear_hand03 Rope4_Seg09
[BasePosition]
#SegmentName Tx, Ty, Tz, Rx, Ry, Rz, BoneLength
MASTER 0.000000 0.000000 0.000000 -90.000000 0.000000 0.000000 10.000000 
root 0.000000 0.000000 0.000000 0.000000 0.000000 0.000000 10.000000 
chest 0.000000 0.000000 0.000000 0.000000 0.000000 0.000000 10.000000 
L_mid_tent01 0.000000 0.000000 0.000000 0.000000 0.000000 0.000000 10.000000 
R_mid_tent01 0.000000 0.000000 0.000000 0.000000 0.000000 0.000000 10.000000 
spine01 0.000000 0.000000 0.000000 0.000000 0.000000 0.000000 10.000000 
Bip01_Neck 0.000000 0.000000 0.000000 0.000000 0.000000 0.000000 10.000000 
L_humerus 0.000000 0.000000 0.000000 0.000000 0.000000 0.000000 10.000000 
R_humerus 0.000000 0.000000 0.000000 0.000000 0.000000 0.000000 10.000000 
weapon_bone 0.000000 0.000000 0.000000 0.000000 0.000000 0.000000 10.000000 
Bip01_Head 0.000000 0.000000 0.000000 0.000000 0.000000 0.000000 10.000000 
eye_left_bone 0.000000 0.000000 0.000000 0.000000 0.000000 0.000000 10.000000 
eye_right_bone 0.000000 0.000000 0.000000 0.000000 0.000000 0.000000 10.000000 
L_forearm 0.000000 0.000000 0.000000 0.000000 0.000000 0.000000 10.000000 
L_front_hand 0.000000 0.000000 0.000000 0.000000 0.000000 0.000000 10.000000 
L_weapon_bone 0.000000 0.000000 0.000000 0.000000 0.000000 0.000000 10.000000 
L_front_hand01_01 0.000000 0.000000 0.000000 0.000000 0.000000 0.000000 10.000000 
L_front_hand02_01 0.000000 0.000000 0.000000 0.000000 0.000000 0.000000 10.000000 
L_front_hand03_01 0.000000 0.000000 0.000000 0.000000 0.000000 0.000000 10.000000 
L_front_hand01_02 0.000000 0.000000 0.000000 0.000000 0.000000 0.000000 10.000000 
L_front_hand02_02 0.000000 0.000000 0.000000 0.000000 0.000000 0.000000 10.000000 
L_front_hand03_02 0.000000 0.000000 0.000000 0.000000 0.000000 0.000000 10.000000 
R_forearm 0.000000 0.000000 0.000000 0.000000 0.000000 0.000000 10.000000 
R_front_hand 0.000000 0.000000 0.000000 0.000000 0.000000 0.000000 10.000000 
R_weapon_bone 0.000000 0.000000 0.000000 0.000000 0.000000 0.000000 10.000000 
R_front_hand01_01 0.000000 0.000000 0.000000 0.000000 0.000000 0.000000 10.000000 
R_front_hand02_01 0.000000 0.000000 0.000000 0.000000 0.000000 0.000000 10.000000 
R_front_hand03_01 0.000000 0.000000 0.000000 0.000000 0.000000 0.000000 10.000000 
R_front_hand01_02 0.000000 0.000000 0.000000 0.000000 0.000000 0.000000 10.000000 
R_front_hand02_02 0.000000 0.000000 0.000000 0.000000 0.000000 0.000000 10.000000 
R_front_hand03_02 0.000000 0.000000 0.000000 0.000000 0.000000 0.000000 10.000000 
null_rope01_connect 0.000000 0.000000 0.000000 0.000000 0.000000 0.000000 10.000000 
Rope1_Seg01 0.000000 0.000000 0.000000 0.000000 0.000000 0.000000 10.000000 
Rope1_Seg02 0.000000 0.000000 0.000000 0.000000 0.000000 0.000000 10.000000 
Rope1_Seg03 0.000000 0.000000 0.000000 0.000000 0.000000 0.000000 10.000000 
Rope1_Seg04 0.000000 0.000000 0.000000 0.000000 0.000000 0.000000 10.000000 
Rope1_Seg05 0.000000 0.000000 0.000000 0.000000 0.000000 0.000000 10.000000 
Rope1_Seg06 0.000000 0.000000 0.000000 0.000000 0.000000 0.000000 10.000000 
Rope1_Seg07 0.000000 0.000000 0.000000 0.000000 0.000000 0.000000 10.000000 
Rope1_Seg09 0.000000 0.000000 0.000000 0.000000 0.000000 0.000000 10.000000 
L_mid_hand01 0.000000 0.000000 0.000000 0.000000 0.000000 0.000000 10.000000 
L_mid_hand02 0.000000 0.000000 0.000000 0.000000 0.000000 0.000000 10.000000 
L_mid_hand03 0.000000 0.000000 0.000000 0.000000 0.000000 0.000000 10.000000 
null_rope02_connect 0.000000 0.000000 0.000000 0.000000 0.000000 0.000000 10.000000 
Rope2_Seg01 0.000000 0.000000 0.000000 0.000000 0.000000 0.000000 10.000000 
Rope2_Seg02 0.000000 0.000000 0.000000 0.000000 0.000000 0.000000 10.000000 
Rope2_Seg03 0.000000 0.000000 0.000000 0.000000 0.000000 0.000000 10.000000 
Rope2_Seg04 0.000000 0.000000 0.000000 0.000000 0.000000 0.000000 10.000000 
Rope2_Seg05 0.000000 0.000000 0.000000 0.000000 0.000000 0.000000 10.000000 
Rope2_Seg06 0.000000 0.000000 0.000000 0.000000 0.000000 0.000000 10.000000 
Rope2_Seg07 0.000000 0.000000 0.000000 0.000000 0.000000 0.000000 10.000000 
Rope2_Seg09 0.000000 0.000000 0.000000 0.000000 0.000000 0.000000 10.000000 
R_mid_hand01 0.000000 0.000000 0.000000 0.000000 0.000000 0.000000 10.000000 
R_mid_hand02 0.000000 0.000000 0.000000 0.000000 0.000000 0.000000 10.000000 
R_mid_hand03 0.000000 0.000000 0.000000 0.000000 0.000000 0.000000 10.000000 
spine02 0.000000 0.000000 0.000000 0.000000 0.000000 0.000000 10.000000 
spine03 0.000000 0.000000 0.000000 0.000000 0.000000 0.000000 10.000000 
pelvis 0.000000 0.000000 0.000000 0.000000 0.000000 0.000000 10.000000 
null_rope03_connect 0.000000 0.000000 0.000000 0.000000 0.000000 0.000000 10.000000 
null_rope04_connect 0.000000 0.000000 0.000000 0.000000 0.000000 0.000000 10.000000 
Rope3_Seg01 0.000000 0.000000 0.000000 0.000000 0.000000 0.000000 10.000000 
Rope3_Seg02 0.000000 0.000000 0.000000 0.000000 0.000000 0.000000 10.000000 
Rope3_Seg03 0.000000 0.000000 0.000000 0.000000 0.000000 0.000000 10.000000 
Rope3_Seg04 0.000000 0.000000 0.000000 0.000000 0.000000 0.000000 10.000000 
Rope3_Seg05 0.000000 0.000000 0.000000 0.000000 0.000000 0.000000 10.000000 
Rope3_Seg06 0.000000 0.000000 0.000000 0.000000 0.000000 0.000000 10.000000 
Rope3_Seg07 0.000000 0.000000 0.000000 0.000000 0.000000 0.000000 10.000000 
Rope3_Seg08 0.000000 0.000000 0.000000 0.000000 0.000000 0.000000 10.000000 
Rope3_Seg09 0.000000 0.000000 0.000000 0.000000 0.000000 0.000000 10.000000 
R_rear_hand01 0.000000 0.000000 0.000000 0.000000 0.000000 0.000000 10.000000 
R_rear_hand02 0.000000 0.000000 0.000000 0.000000 0.000000 0.000000 10.000000 
R_rear_hand03 0.000000 0.000000 0.000000 0.000000 0.000000 0.000000 10.000000 
Rope4_Seg01 0.000000 0.000000 0.000000 0.000000 0.000000 0.000000 10.000000 
Rope4_Seg02 0.000000 0.000000 0.000000 0.000000 0.000000 0.000000 10.000000 
Rope4_Seg03 0.000000 0.000000 0.000000 0.000000 0.000000 0.000000 10.000000 
Rope4_Seg04 0.000000 0.000000 0.000000 0.000000 0.000000 0.000000 10.000000 
Rope4_Seg05 0.000000 0.000000 0.000000 0.000000 0.000000 0.000000 10.000000 
Rope4_Seg06 0.000000 0.000000 0.000000 0.000000 0.000000 0.000000 10.000000 
Rope4_Seg07 0.000000 0.000000 0.000000 0.000000 0.000000 0.000000 10.000000 
Rope4_Seg08 0.000000 0.000000 0.000000 0.000000 0.000000 0.000000 10.000000 
Rope4_Seg09 0.000000 0.000000 0.000000 0.000000 0.000000 0.000000 10.000000 
L_rear_hand01 0.000000 0.000000 0.000000 0.000000 0.000000 0.000000 10.000000 
L_rear_hand02 0.000000 0.000000 0.000000 0.000000 0.000000 0.000000 10.000000 
L_rear_hand03 0.000000 0.000000 0.000000 0.000000 0.000000 0.000000 10.000000 
#Beginning of Data. Separated by tabs
#Fr	Tx	Ty	Tz	Rx	Ry	Rz	SF
[MASTER]
24 1764.596558 -4593.790527 0.000000 0.000492 -0.002295 -114.209946 4921.047852
25 1798.798462 -4808.781250 0.000000 0.000511 -0.002291 -115.161591 5134.204102
[root]
24 -62.822262 92.583733 1089.235107 -89.590073 -5.608831 179.514236 1094.966431
25 -62.822147 96.687675 1101.114624 -89.311447 -5.282141 179.520126 1107.135376
[chest]
24 -84.512650 -34.090519 0.000000 -3.715886 1.417852 156.131439 91.129311
25 -84.512650 -34.090519 0.000000 -3.054607 0.997495 156.191299 91.129311
[L_mid_tent01]
24 23.228750 24.509907 -223.761200 -7.015708 14.749712 4.232661 226.294907
25 23.228750 24.509907 -223.761200 -7.532232 10.293148 6.313422 226.294907
[R_mid_tent01]
24 23.228794 24.509907 226.238495 -161.288498 -6.596373 2.639546 228.744751
25 23.228794 24.509907 226.238495 -161.034485 -6.646145 1.391699 228.744751
[spine01]
24 -0.361383 -0.195265 0.000000 0.001815 0.001488 11.320962 0.410763
25 -0.361383 -0.195265 0.000000 0.001815 0.001488 11.320962 0.410763
[Bip01_Neck]
24 165.484543 71.581718 0.000119 175.896118 1.177290 24.871183 180.302734
25 165.484543 71.581718 0.000119 175.896118 1.177290 24.871183 180.302734
[L_humerus]
24 -13.983130 -135.272980 -120.471481 141.886902 67.232819 -121.037880 181.680161
25 -13.983130 -135.272980 -120.471481 133.777542 72.087700 -128.197098 181.680161
[R_humerus]
24 -13.983309 -135.273102 125.287651 -160.480743 -61.004654 -103.244629 184.909012
25 -13.983309 -135.273102 125.287651 -159.123489 -66.730400 -104.052536 184.909012
[weapon_bone]
24 235.964890 -300.705902 0.000000 0.000000 -89.951546 -128.212341 382.234833
25 235.964890 -300.705902 0.000000 0.000000 -89.951546 -128.212341 382.234833
[Bip01_Head]
24 201.313736 211.516769 15.929725 -10.206596 3.601931 -65.067825 292.438568
25 201.313736 211.516769 15.929725 -9.520008 3.631223 -64.794258 292.438568
[eye_left_bone]
24 -24.626970 125.451866 -64.772606 0.000000 -90.000000 -99.840431 143.318359
25 -24.626970 125.451866 -64.772606 0.000000 -90.000000 -99.840431 143.318359
[eye_right_bone]
24 -24.626970 125.451866 64.327362 0.000000 -89.965736 80.156380 143.117676
25 -24.626970 125.451866 64.327362 0.000000 -89.965736 80.156380 143.117676
[L_forearm]
24 322.776093 0.000000 -0.000119 0.000357 -0.002320 -107.506004 322.776093
25 322.776093 0.000000 -0.000119 0.000357 -0.002320 -107.505997 322.776093
[L_front_hand]
24 241.149185 -0.042021 -3.300071 -179.431961 -2.195943 -5.942918 241.171753
25 241.149185 -0.042021 -3.300071 -179.431961 -2.195943 -5.942919 241.171753
[L_weapon_bone]
24 156.183838 0.000000 0.000000 0.000014 0.000007 0.000001 156.183838
25 156.183838 0.000000 0.000000 0.000014 0.000007 0.000001 156.183838
[L_front_hand01_01]
24 86.095154 20.947098 -0.655860 0.139491 -0.584553 24.181786 88.609184
25 86.095154 20.947098 -0.655860 0.139491 -0.584553 24.181786 88.609184
[L_front_hand02_01]
24 86.935165 -11.437475 24.513514 119.190460 -21.905655 -12.119137 91.046425
25 86.935165 -11.437475 24.513514 119.190460 -21.905655 -12.119137 91.046425
[L_front_hand03_01]
24 86.637497 -14.123976 -20.424902 -120.437630 20.554031 -14.327168 90.126129
25 86.637497 -14.123976 -20.424902 -120.437630 20.554031 -14.327168 90.126129
[L_front_hand01_02]
24 71.020905 -0.000179 0.000030 0.000334 -0.002323 -106.379684 71.020905
25 71.020905 -0.000179 0.000030 0.000334 -0.002323 -106.379684 71.020905
[L_front_hand02_02]
24 71.020927 -0.000119 0.000060 0.000334 -0.002323 -106.379684 71.020927
25 71.020927 -0.000119 0.000060 0.000334 -0.002323 -106.379684 71.020927
[L_front_hand03_02]
24 71.020905 -0.000060 0.000060 0.000334 -0.002323 -106.379684 71.020905
25 71.020905 -0.000060 0.000060 0.000334 -0.002323 -106.379684 71.020905
[R_forearm]
24 322.776428 -0.000060 0.000030 0.196737 0.083011 -114.368637 322.776428
25 322.776428 -0.000060 0.000030 0.196737 0.083011 -114.368637 322.776428
[R_front_hand]
24 238.847015 -0.006795 2.210259 -0.341870 1.692706 -0.151780 238.857239
25 238.847015 -0.006795 2.210259 -0.341870 1.692706 -0.151780 238.857239
[R_weapon_bone]
24 155.664093 0.002503 -0.000030 0.003487 0.001180 -90.988930 155.664078
25 155.664093 0.002503 -0.000030 0.003487 0.001180 -90.988930 155.664078
[R_front_hand01_01]
24 87.624611 14.231146 22.918642 -119.218056 -22.033409 12.303375 91.683487
25 87.624611 14.231146 22.918642 -119.218056 -22.033411 12.303375 91.683487
[R_front_hand02_01]
24 89.356956 14.367283 -19.491137 120.545532 20.947184 14.823009 92.579636
25 89.356956 14.367283 -19.491137 120.545532 20.947184 14.823009 92.579636
[R_front_hand03_01]
24 87.286232 -22.307278 -0.143439 -0.231628 -0.392922 -24.567768 90.091743
25 87.286232 -22.307278 -0.143439 -0.231628 -0.392922 -24.567768 90.091743
[R_front_hand01_02]
24 71.020905 0.000060 0.000119 0.002323 -0.000334 106.381714 71.020905
25 71.020905 0.000060 0.000119 0.002323 -0.000334 106.381714 71.020905
[R_front_hand02_02]
24 71.020844 -0.000030 -0.000119 0.002323 -0.000334 106.381714 71.020836
25 71.020844 -0.000030 -0.000119 0.002323 -0.000334 106.381714 71.020836
[R_front_hand03_02]
24 71.020905 0.000000 0.000030 0.002323 -0.000334 106.381714 71.020905
25 71.020905 0.000000 0.000030 0.002323 -0.000334 106.381714 71.020905
[null_rope01_connect]
24 328.732483 0.000000 -0.000238 99.794876 50.035145 8.770954 328.732483
25 328.732483 0.000000 -0.000238 101.944725 53.681526 8.527061 328.732483
[Rope1_Seg01]
24 0.000121 0.000000 -0.000018 104.369553 -28.837080 -4.572366 0.000123
25 0.000126 0.000000 -0.000015 110.334511 -25.381907 -16.123098 0.000127
[Rope1_Seg02]
24 139.999863 -0.000179 0.000000 -0.480517 3.468116 0.907446 139.999863
25 139.999863 -0.000179 0.000000 -0.098485 3.523965 0.443949 139.999863
[Rope1_Seg03]
24 139.999924 0.000060 -0.000060 -0.906025 5.352040 1.449674 139.999924
25 139.999924 0.000060 -0.000060 -0.311423 5.049759 0.646344 139.999924
[Rope1_Seg04]
24 139.999924 -0.000060 -0.000119 -2.049515 9.359914 2.836826 139.999924
25 139.999924 -0.000060 -0.000119 -0.882734 7.840550 1.056603 139.999924
[Rope1_Seg05]
24 139.999832 0.000119 -0.000060 -4.711711 15.979114 7.283610 139.999832
25 139.999832 0.000119 -0.000060 -2.361995 12.076928 0.129796 139.999832
[Rope1_Seg06]
24 139.999954 0.000119 -0.000060 -15.304113 41.330082 17.813536 139.999954
25 139.999954 0.000119 -0.000060 -6.101230 17.631802 2.698677 139.999954
[Rope1_Seg07]
24 139.999985 0.000060 0.000000 -14.388202 31.528273 28.347084 139.999985
25 139.999985 0.000060 0.000000 -15.741183 38.828060 26.369818 139.999985
[Rope1_Seg09]
24 121.602913 0.000119 -0.000089 -89.793175 -1.359789 0.847147 121.602913
25 121.602913 0.000119 -0.000089 -89.793175 -1.359789 0.847147 121.602913
[L_mid_hand01]
24 103.859421 1.038730 8.195221 106.855484 -31.239275 -9.461397 104.187431
25 103.859421 1.038730 8.195221 106.855484 -31.239275 -9.461397 104.187431
[L_mid_hand02]
24 105.572853 -4.139662 -10.864139 -142.331345 25.752670 -28.774628 106.211075
25 105.572853 -4.139662 -10.864139 -142.331345 25.752670 -28.774628 106.211075
[L_mid_hand03]
24 104.641464 17.579376 -3.913581 -16.122810 9.734291 34.223598 106.179977
25 104.641464 17.579376 -3.913581 -16.122810 9.734291 34.223598 106.179977
[null_rope02_connect]
24 328.732849 0.000179 -0.000119 -139.169067 -64.865570 43.172337 328.732849
25 328.732849 0.000179 -0.000119 -138.965744 -64.220955 41.797302 328.732849
[Rope2_Seg01]
24 -0.000141 -0.000036 -0.000036 -68.187691 -22.207899 -70.075241 0.000150
25 -0.000143 -0.000031 -0.000031 -70.796585 -23.105976 -68.670883 0.000149
[Rope2_Seg02]
24 139.999741 -0.000060 -0.000119 -2.756569 -0.679296 -1.159451 139.999756
25 139.999741 -0.000060 -0.000119 -3.119573 -1.100528 -1.046996 139.999756
[Rope2_Seg03]
24 140.000107 0.000030 0.000000 -4.901603 -1.098898 -2.114773 140.000107
25 140.000107 0.000030 0.000000 -6.125864 -1.936240 -2.054566 140.000107
[Rope2_Seg04]
24 139.999802 0.000000 -0.000060 -12.894814 -2.484330 -5.983406 139.999802
25 139.999802 0.000000 -0.000060 -21.774811 -5.682858 -7.550561 139.999802
[Rope2_Seg05]
24 139.999985 -0.000060 0.000119 -30.453375 -8.776738 -118.396225 139.999985
25 139.999985 -0.000060 0.000119 -29.607828 -15.446343 -121.774498 139.999985
[Rope2_Seg06]
24 139.999893 -0.000030 -0.000119 10.317425 14.381481 -20.332233 139.999893
25 139.999893 -0.000030 -0.000119 2.865002 14.884332 -12.176952 139.999893
[Rope2_Seg07]
24 139.999893 0.000060 -0.000060 -4.141447 -0.929747 4.233035 139.999893
25 139.999893 0.000060 -0.000060 -5.880988 3.846392 3.743964 139.999893
[Rope2_Seg09]
24 121.338966 0.000089 -0.000060 33.793236 -1.359788 -0.847141 121.338966
25 121.338966 0.000089 -0.000060 33.793236 -1.359788 -0.847141 121.338966
[R_mid_hand01]
24 104.680779 11.144459 -10.335981 -41.523792 25.424656 28.595957 105.778534
25 104.680779 11.144459 -10.335981 -41.523792 25.424656 28.595957 105.778534
[R_mid_hand02]
24 104.070427 2.443552 8.231699 72.847389 -32.746803 10.013901 104.424065
25 104.070427 2.443552 8.231699 72.847389 -32.746803 10.013901 104.424065
[R_mid_hand03]
24 106.028137 -11.221827 -5.996406 -167.901306 10.259192 -37.009720 106.788818
25 106.028137 -11.221827 -5.996406 -167.901306 10.259192 -37.009720 106.788818
[spine02]
24 129.756927 0.001550 0.000119 0.001147 -1.797837 -7.854275 129.756927
25 129.756927 0.001550 0.000119 0.001147 -1.797837 -7.854274 129.756927
[spine03]
24 79.115631 0.000000 -0.000119 1.459971 -2.848092 23.765963 79.115631
25 79.115631 0.000000 -0.000119 1.459971 -2.848092 23.765963 79.115631
[pelvis]
24 169.435242 0.051022 0.000000 -0.000005 0.000003 -4.322055 169.435257
25 169.435242 0.051022 0.000000 -0.000005 0.000003 -4.322055 169.435257
[null_rope03_connect]
24 -1.257226 -2.466202 137.391083 82.156624 69.177895 -24.600742 137.418976
25 -1.257226 -2.466202 137.391083 81.673759 68.210297 -25.307508 137.418976
[null_rope04_connect]
24 -1.259640 -2.480268 -137.844437 82.156624 69.177895 -24.600742 137.872513
25 -1.259640 -2.480268 -137.844437 81.673759 68.210297 -25.307508 137.872513
[Rope3_Seg01]
24 0.000121 0.000000 -0.000018 -128.481812 -5.282830 85.001762 0.000123
25 0.000126 0.000000 -0.000015 -127.223557 -2.224214 72.612938 0.000127
[Rope3_Seg02]
24 139.999924 -0.000119 0.000060 -0.188040 -1.021803 0.196213 139.999924
25 139.999924 -0.000119 0.000060 -0.449353 -2.627650 -1.907579 139.999924
[Rope3_Seg03]
24 139.999924 -0.000119 0.000119 -0.223201 -1.184912 0.221571 139.999924
25 139.999924 -0.000119 0.000119 -0.416268 -2.974640 -2.199159 139.999924
[Rope3_Seg04]
24 139.999924 0.000119 0.000000 -0.369198 -1.778908 -0.007469 139.999924
25 139.999924 0.000119 0.000000 -0.459461 -4.088751 -3.169435 139.999924
[Rope3_Seg05]
24 139.999924 -0.000238 0.000060 -0.360337 -4.912832 -1.948261 139.999924
25 139.999924 -0.000238 0.000060 -0.072163 -6.874223 -5.704073 139.999924
[Rope3_Seg06]
24 139.999893 -0.000119 -0.000060 0.274457 0.323289 2.015431 139.999893
25 139.999893 -0.000119 -0.000060 0.340699 -0.951911 -0.327610 139.999893
[Rope3_Seg07]
24 139.999771 0.000060 -0.000119 2.154614 9.334777 8.617373 139.999771
25 139.999771 0.000060 -0.000119 1.332911 6.907723 6.834745 139.999771
[Rope3_Seg08]
24 139.999985 -0.000060 0.000000 2.403554 7.675074 6.780399 139.999985
25 139.999985 -0.000060 0.000000 1.291095 5.140460 4.987347 139.999985
[Rope3_Seg09]
24 90.185997 -0.000179 -0.000060 89.793228 -1.359877 -0.847183 90.185997
25 90.185997 -0.000179 -0.000060 89.793228 -1.359877 -0.847183 90.185997
[R_rear_hand01]
24 103.366196 -6.073594 -10.757982 -161.551193 16.666374 -30.088671 104.101845
25 103.366196 -6.073594 -10.757982 -161.551193 16.666374 -30.088671 104.101845
[R_rear_hand02]
24 100.509819 12.039542 -7.992327 -34.280552 19.289745 28.875523 101.543350
25 100.509819 12.039542 -7.992327 -34.280552 19.289745 28.875523 101.543350
[R_rear_hand03]
24 101.539970 5.215704 5.435467 83.366440 -30.933914 7.284830 101.819031
25 101.539970 5.215704 5.435467 83.366440 -30.933914 7.284830 101.819031
[Rope4_Seg01]
24 0.000012 -0.000450 -0.000153 46.751930 -1.994963 72.077553 0.000475
25 0.000011 -0.000473 -0.000153 42.691685 5.025133 51.288116 0.000497
[Rope4_Seg02]
24 139.999985 0.000060 0.000119 0.328398 9.100574 3.729697 139.999985
25 139.999985 0.000060 0.000119 3.693946 13.434415 15.592760 139.999985
[Rope4_Seg03]
24 139.999924 0.000000 -0.000238 0.189837 5.693442 3.185658 139.999924
25 139.999924 0.000000 -0.000238 0.622498 8.254849 9.135367 139.999924
[Rope4_Seg04]
24 139.999985 0.000000 0.000119 0.004719 4.430701 3.150076 139.999985
25 139.999985 0.000000 0.000119 -0.242725 5.465575 6.301267 139.999985
[Rope4_Seg05]
24 139.999802 -0.000060 -0.000119 0.348294 -0.044460 -1.096424 139.999802
25 139.999802 -0.000060 -0.000119 0.060281 0.876777 0.551117 139.999802
[Rope4_Seg06]
24 139.999924 0.000000 0.000060 0.884051 -3.554598 -4.970556 139.999924
25 139.999924 0.000000 0.000060 0.677059 -1.849648 -3.214954 139.999924
[Rope4_Seg07]
24 139.999802 0.000000 0.000000 1.217214 -7.985458 -10.185884 139.999802
25 139.999802 0.000000 0.000000 1.192809 -5.069203 -7.839762 139.999802
[Rope4_Seg08]
24 139.999924 0.000000 0.000119 -1.533912 -5.282630 -7.027433 139.999924
25 139.999924 0.000000 0.000119 -1.197764 -3.135586 -5.028786 139.999924
[Rope4_Seg09]
24 90.185791 0.000060 0.000060 -135.617828 2.228885 0.850567 90.185791
25 90.185791 0.000060 0.000060 -135.617828 2.228885 0.850567 90.185791
[L_rear_hand01]
24 101.696655 -8.392275 -7.654577 -34.454281 -18.946800 151.655121 102.329041
25 101.696655 -8.392275 -7.654577 -34.454281 -18.946800 151.655121 102.329041
[L_rear_hand02]
24 102.726799 -1.568258 5.773216 83.407906 30.330435 172.796509 102.900848
25 102.726799 -1.568258 5.773216 83.407906 30.330435 172.796509 102.900848
[L_rear_hand03]
24 104.552910 9.721220 -10.420293 -161.379868 -16.473232 -150.512238 105.519653
25 104.552910 9.721220 -10.420293 -161.379868 -16.473232 -150.512238 105.519653
